<?xml version="1.0" standalone="no"?>
<!DOCTYPE svg PUBLIC "-//W3C//DTD SVG 20010904//EN"
 "http://www.w3.org/TR/2001/REC-SVG-20010904/DTD/svg10.dtd">
<svg version="1.0" xmlns="http://www.w3.org/2000/svg"
 width="1024.000000pt" height="1024.000000pt" viewBox="0 0 1024.000000 1024.000000"
 preserveAspectRatio="xMidYMid meet">

<g transform="translate(0.000000,1024.000000) scale(0.100000,-0.100000)"
fill="#000000" stroke="none">
<path d="M4915 7101 c-731 -85 -1323 -618 -1466 -1319 -26 -127 -36 -399 -20
-525 71 -531 387 -986 861 -1240 345 -185 749 -240 1150 -157 132 28 206 53
346 120 242 115 429 263 595 472 99 124 222 355 272 509 107 326 109 671 5
999 -60 190 -199 436 -317 560 -44 47 -92 55 -111 19 -17 -31 -6 -61 49 -126
156 -187 262 -410 317 -663 29 -130 26 -449 -4 -583 -113 -504 -457 -923 -913
-1111 -219 -90 -397 -121 -649 -113 -246 8 -420 49 -625 147 -560 268 -899
828 -872 1439 25 559 351 1044 882 1314 69 35 249 94 365 120 80 18 127 21
295 21 263 0 340 -16 652 -135 73 -28 96 -21 101 29 3 28 -2 35 -44 62 -90 57
-262 113 -444 145 -104 18 -330 27 -425 16z"/>
<path d="M5313 6809 c-56 -21 -31 -101 44 -145 41 -25 58 -28 157 -31 61 -3
124 -9 139 -15 34 -13 57 -55 57 -102 l0 -35 -617 -3 -618 -3 -57 -27 c-151
-70 -238 -211 -238 -384 0 -138 58 -252 175 -347 176 -142 448 -113 546 57 23
42 29 63 29 114 0 75 -18 120 -66 162 -90 79 -225 -8 -155 -99 16 -21 24 -23
65 -18 45 7 46 6 46 -21 0 -53 -41 -114 -94 -141 -111 -57 -246 -23 -345 84
-134 148 -107 376 57 473 l47 27 613 3 612 3 2 -223 c3 -491 -5 -1233 -14
-1243 -5 -5 -35 -10 -67 -10 -51 1 -68 7 -159 59 -131 75 -182 90 -287 84 -67
-3 -95 -10 -147 -36 -77 -38 -103 -65 -188 -190 -74 -110 -126 -154 -207 -178
-115 -33 -228 1 -316 95 -65 70 -90 129 -90 216 -1 118 55 210 161 262 l57 28
335 2 c184 2 354 5 376 8 64 9 174 67 227 121 244 247 73 708 -272 731 -85 6
-111 -6 -111 -51 0 -42 22 -57 98 -66 39 -5 89 -18 109 -29 133 -69 202 -236
158 -387 -14 -48 -27 -69 -74 -115 -94 -92 -97 -92 -502 -94 -397 -2 -419 -6
-524 -85 -108 -82 -160 -200 -153 -349 3 -70 10 -99 34 -151 87 -184 279 -292
468 -261 144 24 225 82 321 231 34 52 76 107 93 122 86 72 214 78 324 14 153
-88 203 -107 278 -109 l72 -2 -4 -90 c-5 -102 -21 -141 -88 -217 -27 -31 -65
-59 -108 -80 -59 -28 -77 -32 -152 -32 -91 1 -129 12 -211 64 -49 32 -78 37
-97 18 -18 -18 -14 -62 8 -91 30 -38 154 -96 232 -109 184 -30 391 70 476 230
63 118 62 90 62 1147 0 613 -4 973 -10 996 -28 101 -98 147 -236 155 -126 7
-148 12 -185 37 -47 31 -60 36 -86 26z"/>
<path d="M6160 5543 c-39 -27 -49 -45 -50 -90 0 -59 31 -93 92 -100 42 -5 50
-3 78 25 44 44 43 101 -4 148 -39 39 -77 44 -116 17z"/>
<path d="M5008 4615 c-32 -18 -42 -45 -34 -91 9 -45 49 -67 99 -53 45 12 61
32 60 76 -2 63 -69 99 -125 68z"/>
<path d="M2822 3502 c-69 -20 -120 -100 -108 -167 13 -70 72 -109 211 -140 35
-8 65 -32 65 -52 0 -8 -11 -25 -25 -38 -31 -31 -90 -33 -145 -5 -45 23 -71 25
-88 8 -35 -35 5 -90 83 -114 115 -34 217 3 257 94 25 56 18 100 -23 147 -29
33 -59 46 -172 75 -26 7 -52 20 -57 30 -21 39 17 80 75 80 13 0 44 -9 70 -20
59 -25 61 -25 80 4 22 33 6 62 -48 87 -42 19 -128 24 -175 11z"/>
<path d="M3284 3496 c-18 -13 -19 -30 -22 -238 -3 -240 2 -270 46 -276 50 -7
52 2 52 268 l0 248 -22 6 c-31 8 -32 8 -54 -8z"/>
<path d="M3578 3499 c-16 -9 -18 -32 -18 -254 0 -184 3 -246 13 -252 6 -4 61
-6 120 -5 85 1 118 6 158 23 99 43 170 164 154 262 -18 104 -94 194 -188 222
-57 17 -213 20 -239 4z m239 -116 c19 -9 46 -33 60 -54 22 -33 25 -47 21 -94
-8 -97 -66 -145 -175 -145 l-63 0 0 155 0 155 61 0 c36 0 75 -7 96 -17z"/>
<path d="M4198 3500 c-16 -10 -18 -33 -18 -255 0 -292 -11 -271 143 -261 119
8 181 31 233 88 47 53 64 95 64 164 0 78 -17 128 -62 178 -58 67 -113 88 -238
93 -65 2 -112 0 -122 -7z m249 -126 c69 -52 91 -130 55 -201 -30 -58 -63 -76
-154 -81 l-78 -5 0 95 c0 52 3 123 7 158 l6 62 68 -4 c49 -3 76 -9 96 -24z"/>
<path d="M4797 3492 c-15 -16 -17 -46 -17 -255 0 -230 1 -237 21 -247 29 -16
65 -5 73 22 3 13 6 60 6 106 l0 82 99 0 99 0 4 -95 c4 -110 18 -136 65 -119
l28 9 3 248 2 247 -24 11 c-17 8 -29 8 -45 0 -18 -10 -21 -21 -21 -69 0 -31
-3 -74 -6 -94 l-7 -38 -98 0 -99 0 0 88 c0 48 -4 92 -8 99 -14 22 -57 25 -75
5z"/>
<path d="M5512 3501 c-7 -4 -29 -50 -48 -102 -96 -255 -134 -365 -134 -385 0
-25 29 -39 60 -29 21 7 50 53 50 80 0 13 17 15 108 15 l108 0 22 -45 c14 -29
30 -47 46 -51 25 -6 66 10 66 25 0 11 -80 229 -139 380 -23 58 -47 108 -53
113 -17 10 -69 10 -86 -1z m77 -224 c17 -43 31 -82 31 -87 0 -6 -29 -10 -65
-10 -36 0 -65 1 -65 3 1 20 60 180 65 175 2 -2 17 -38 34 -81z"/>
<path d="M5948 3500 c-16 -10 -18 -33 -18 -255 0 -231 1 -245 19 -255 55 -29
81 0 81 91 l0 69 58 0 57 0 45 -77 c51 -86 65 -99 104 -89 43 11 42 32 -8 113
l-47 76 42 43 c37 38 43 50 47 97 5 69 -22 126 -80 164 -39 26 -50 28 -162 31
-74 1 -128 -2 -138 -8z m261 -126 c12 -15 21 -34 21 -44 0 -10 -9 -29 -21 -44
-19 -24 -26 -26 -100 -26 l-79 0 0 70 0 70 79 0 c74 0 81 -2 100 -26z"/>
<path d="M6520 3501 c-32 -5 -35 -9 -38 -44 -3 -32 0 -38 23 -47 14 -6 50 -10
80 -10 l54 0 3 -200 c3 -214 5 -219 54 -220 41 0 44 15 44 221 l0 196 76 5
c79 5 94 14 94 55 0 45 -32 53 -200 52 -85 -1 -171 -4 -190 -8z"/>
<path d="M7066 3497 c-18 -13 -19 -31 -20 -256 -1 -260 -1 -260 51 -261 39 0
53 36 53 132 l0 88 100 0 100 0 0 -100 c0 -97 1 -101 25 -112 19 -8 31 -8 50
0 l25 12 0 244 c0 232 -1 246 -19 256 -59 31 -81 1 -81 -111 l0 -89 -100 0
-100 0 0 88 c0 48 -4 92 -8 99 -12 19 -55 25 -76 10z"/>
</g>
</svg>
