<?xml version="1.0" standalone="no"?>
<!DOCTYPE svg PUBLIC "-//W3C//DTD SVG 20010904//EN"
 "http://www.w3.org/TR/2001/REC-SVG-20010904/DTD/svg10.dtd">
<svg version="1.0" xmlns="http://www.w3.org/2000/svg"
 width="580.000000pt" height="557.000000pt" viewBox="0 0 580.000000 557.000000"
 preserveAspectRatio="xMidYMid meet">

<g transform="translate(0.000000,557.000000) scale(0.100000,-0.100000)"
fill="#000000" stroke="none">
<path d="M2485 5531 c-1768 -7 -1612 -1 -1789 -69 -247 -96 -467 -327 -550
-577 -59 -176 -56 -83 -55 -2105 0 -1111 4 -1892 10 -1947 23 -224 106 -406
259 -566 92 -98 195 -168 322 -219 99 -41 108 -43 231 -46 l127 -4 0 115 0
114 -72 6 c-85 7 -196 43 -276 89 -148 84 -279 261 -328 443 -18 68 -19 135
-19 1985 1 1811 2 1919 19 1985 10 39 21 75 25 80 4 6 13 28 20 50 22 64 110
183 179 241 83 71 182 120 300 150 l95 24 1523 0 1524 0 0 -550 0 -550 -1282
-2 -1283 -3 3 -1665 c1 -916 2 -1855 2 -2088 l0 -422 1768 2 1767 3 55 25
c184 81 344 213 446 366 64 96 96 166 132 288 l27 91 3 1920 c2 1389 0 1946
-8 2013 -25 204 -124 399 -278 549 -156 152 -338 240 -547 263 -151 17 -136
30 -133 -117 l3 -128 80 -8 c168 -16 303 -77 420 -192 122 -119 187 -261 206
-450 6 -63 8 -790 7 -1955 l-3 -1855 -23 -75 c-82 -269 -295 -458 -572 -509
-35 -6 -611 -11 -1575 -13 l-1520 -3 -3 553 -2 552 492 1 c271 0 570 1 663 3
94 2 450 4 793 5 l623 1 -3 2094 c-2 1152 -5 2097 -8 2100 -12 11 -245 12
-1795 7z m1541 -1613 c2 -3 7 -530 9 -1171 l5 -1166 -23 -3 c-12 -2 -534 -2
-1159 0 l-1138 2 0 1173 0 1172 1150 -1 c633 -1 1153 -4 1156 -6z"/>
<path d="M2275 3690 c-136 -17 -222 -90 -271 -230 -15 -44 -19 -83 -19 -195 0
-232 30 -290 290 -555 113 -116 182 -195 199 -228 64 -127 62 -388 -4 -454
-24 -23 -37 -28 -78 -28 -60 0 -93 23 -117 82 -15 36 -18 76 -19 233 l-1 190
-80 5 c-44 3 -101 4 -127 2 l-48 -5 0 -151 c0 -318 51 -470 180 -536 85 -43
272 -50 384 -13 93 30 159 121 192 261 18 76 20 305 3 382 -29 136 -110 258
-307 462 -154 160 -174 186 -196 249 -31 87 -12 253 32 287 56 44 145 33 184
-21 21 -30 23 -44 26 -204 l4 -173 41 0 c23 0 79 -3 125 -7 l82 -6 0 134 c0
277 -53 429 -170 489 -57 29 -196 43 -305 30z"/>
<path d="M3060 2741 l0 -941 135 0 135 0 0 374 0 374 133 4 c110 4 141 8 185
27 148 66 212 238 212 573 0 243 -36 376 -122 454 -74 67 -82 68 -395 72
l-283 4 0 -941z m447 728 c52 -17 73 -63 85 -187 10 -116 4 -301 -14 -396 -7
-39 -20 -69 -37 -87 -24 -27 -32 -29 -118 -33 l-93 -4 0 364 0 363 73 -5 c39
-3 86 -10 104 -15z"/>
</g>
</svg>
